# xmcd CD database file
#
# Track frame offsets:
#	150
#	16175
#	34090
#	48158
#	59114
#	74054
#	93124
#	106510
#	123215
#	132796
#	149061
#	160095
#	172720
#	191141
#	202170
#	215202
#
# Disc length: 3014 seconds
#
# Revision: 0
# Processed by: cddbd v1.5.1PL0 Copyright (c) Steve Scherf et al.
# Submitted via: CDex 1.51
#
DISCID=e90bc410
DTITLE=Nina Simone - My baby just cares for me
DYEAR=1900
DGENRE=Jazz
TTITLE0=My baby just cares for me
TTITLE1=Mood indigo
TTITLE2=Don´t smoke in bed
TTITLE3=He needs me
TTITLE4=Love me or leave me
TTITLE5=Little girl blue
TTITLE6=I like the sunshine
TTITLE7=Solitude
TTITLE8=The gal from Joe´s
TTITLE9=Satin doll
TTITLE10=It don´t mean a thing (If I ain´t got that swing)
TTITLE11=Do nothing´till you hear from me
TTITLE12=I god it bad and that ain´t good
TTITLE13=Hey, buddy Bolden
TTITLE14=Something to live for
TTITLE15=You better know it
EXTD=
EXTT0=
EXTT1=
EXTT2=
EXTT3=
EXTT4=
EXTT5=
EXTT6=
EXTT7=
EXTT8=
EXTT9=
EXTT10=
EXTT11=
EXTT12=
EXTT13=
EXTT14=
EXTT15=
PLAYORDER=
